<svg id="_x33_0" enable-background="new 0 0 64 64" height="512" viewBox="0 0 64 64" width="512" xmlns="http://www.w3.org/2000/svg"><g><path d="m44 53c-1.654 0-3 1.346-3 3s1.346 3 3 3 3-1.346 3-3-1.346-3-3-3zm0 4c-.551 0-1-.448-1-1s.449-1 1-1 1 .448 1 1-.449 1-1 1z"/><path d="m14 53c-1.654 0-3 1.346-3 3s1.346 3 3 3 3-1.346 3-3-1.346-3-3-3zm0 4c-.551 0-1-.448-1-1s.449-1 1-1 1 .448 1 1-.449 1-1 1z"/><path d="m56 59c1.654 0 3-1.346 3-3s-1.346-3-3-3-3 1.346-3 3 1.346 3 3 3zm0-4c.551 0 1 .448 1 1s-.449 1-1 1-1-.448-1-1 .449-1 1-1z"/><path d="m63 56c0-3.859-3.14-7-7-7-2.548 0-4.775 1.373-6 3.413-1.225-2.04-3.452-3.413-6-3.413h-9v-18h-4v-2h4v-8h-4v-2h-6v-3c0-.552.449-1 1-1h1v-2h-1c-1.654 0-3 1.346-3 3v3c-11.028 0-20 8.972-20 20v6.184c-1.161.414-2 1.514-2 2.816v6c0 1.654 1.346 3 3 3h3.08c.224 1.556.956 2.949 2.031 4h-8.111v2h28v-2h-10.111c.587-.574 1.068-1.251 1.425-2h17.37c.357.749.839 1.426 1.425 2h-2.109v2h26v-2h-2.111c1.301-1.272 2.111-3.042 2.111-5zm-7-5c2.757 0 5 2.243 5 5s-2.243 5-5 5-5-2.243-5-5 2.243-5 5-5zm-51-6v-4h10v-3c0-2.757-2.243-5-5-5h-3.95c.244-.687.527-1.354.849-2h16.101v4h-2v12.019c-1.674-1.261-3.747-2.019-6-2.019zm.464-10h4.536c1.654 0 3 1.346 3 3v1h-8c0-1.376.17-2.711.464-4zm17.536 14.026v-12.026h2v16h-.202c-.299-1.469-.93-2.815-1.798-3.974zm2-14.026v-4h4v20h10.111c-.587.574-1.068 1.251-1.425 2h-10.686v-18zm0-10h4v4h-4zm8 8v16h-2v-16zm0-10v4h-2v-4zm-4-2v2h-4v-2zm-6 0v8h-14.956c3.233-4.82 8.729-8 14.956-8zm-19 26h1v1c0 .552-.449 1-1 1h-1v-1c0-.552.449-1 1-1zm10 14c-2.757 0-5-2.243-5-5s2.243-5 5-5 5 2.243 5 5-2.243 5-5 5zm0-12c-3.519 0-6.432 2.614-6.92 6h-3.08c-.551 0-1-.448-1-1v-3h1c1.654 0 3-1.346 3-3v-1h8c4.411 0 8 3.589 8 8v2h-2.08c.047-.328.08-.66.08-1 0-3.859-3.14-7-7-7zm11 8v-2h12.08c-.047.328-.08.66-.08 1s.033.672.08 1zm14-1c0-2.757 2.243-5 5-5s5 2.243 5 5-2.243 5-5 5-5-2.243-5-5zm9.889 5c.429-.42.8-.896 1.111-1.413.311.517.682.994 1.111 1.413z"/><path d="m31 61h4v2h-4z"/></g></svg>